<?xml version="1.0" encoding="UTF-8" standalone="no"?>
<!-- Created with Inkscape (http://www.inkscape.org/) -->

<svg
   width="64"
   height="64"
   viewBox="0 0 16.933333 16.933333"
   version="1.1"
   id="svg1"
   xml:space="preserve"
   inkscape:version="1.3 (0e150ed6c4, 2023-07-21)"
   sodipodi:docname="easer.svg"
   xmlns:inkscape="http://www.inkscape.org/namespaces/inkscape"
   xmlns:sodipodi="http://sodipodi.sourceforge.net/DTD/sodipodi-0.dtd"
   xmlns="http://www.w3.org/2000/svg"
   xmlns:svg="http://www.w3.org/2000/svg"><sodipodi:namedview
     id="namedview1"
     pagecolor="#ffffff"
     bordercolor="#000000"
     borderopacity="0.25"
     inkscape:showpageshadow="2"
     inkscape:pageopacity="0.0"
     inkscape:pagecheckerboard="0"
     inkscape:deskcolor="#d1d1d1"
     inkscape:document-units="mm"
     inkscape:zoom="6.0019557"
     inkscape:cx="33.239166"
     inkscape:cy="-0.08330618"
     inkscape:window-width="1350"
     inkscape:window-height="1237"
     inkscape:window-x="1166"
     inkscape:window-y="57"
     inkscape:window-maximized="0"
     inkscape:current-layer="layer1" /><defs
     id="defs1" /><g
     inkscape:label="Layer 1"
     inkscape:groupmode="layer"
     id="layer1"><g
       id="g1"
       transform="matrix(0.25078635,0,0,0.25078635,0.5234417,0.06343363)"
       style="fill:#ff6600;fill-opacity:1"><g
         id="g5"
         style="fill:#ff6600;fill-opacity:1"><rect
           x="16.9"
           y="16.299999"
           transform="matrix(-0.7071,-0.7071,0.7071,-0.7071,31.6308,78.6625)"
           width="30.4"
           height="33"
           id="rect1"
           style="fill:#ff6600;fill-opacity:1" /><path
           d="m 61.2,16.7 -13,-13 C 45.9,1.4 42,1.4 39.7,3.7 L 34.4,9 56,30.4 61.3,25.1 c 2.3,-2.3 2.3,-6.1 -0.1,-8.4 z"
           id="path1"
           style="fill:#ff6600;fill-opacity:1" /><path
           d="M 8.3,35.1 3,40.4 c -2.3,2.3 -2.3,6.2 0,8.5 l 13,13 c 2.3,2.3 6.2,2.3 8.5,0 l 5.3,-5.3 z"
           id="path2"
           style="fill:#ff6600;fill-opacity:1" /><path
           d="M 53,62.1 H 27.1 l -1.2,1.2 c -0.3,0.3 -0.6,0.6 -0.9,0.8 h 28 c 0.5,0 1,-0.4 1,-1 0,-0.5 -0.4,-1 -1,-1 z"
           id="path3"
           style="fill:#ff6600;fill-opacity:1" /><path
           d="m 3.1651454,62.121832 11.7496176,-0.06094 c -0.336101,0.982077 -2.026835,2.071461 -2.026835,2.071461 l -9.7837233,-0.06094 c -0.213881,-0.0013 -0.4277713,-0.499608 -0.4277713,-1.249021 0,-0.624513 0.2320527,-0.699228 0.488712,-0.70056 z"
           id="path3-2"
           style="fill:#ff6600;fill-opacity:1;stroke-width:0.730956"
           sodipodi:nodetypes="sccsss" /></g></g></g></svg>
