<?xml version="1.0" encoding="UTF-8" standalone="no"?>
<svg
   viewBox="0 0 64 64"
   fill="none"
   x="0px"
   y="0px"
   version="1.1"
   id="svg3"
   sodipodi:docname="fill.svg"
   width="64"
   height="64"
   inkscape:version="1.3 (0e150ed6c4, 2023-07-21)"
   xmlns:inkscape="http://www.inkscape.org/namespaces/inkscape"
   xmlns:sodipodi="http://sodipodi.sourceforge.net/DTD/sodipodi-0.dtd"
   xmlns="http://www.w3.org/2000/svg"
   xmlns:svg="http://www.w3.org/2000/svg">
  <defs
     id="defs3" />
  <sodipodi:namedview
     id="namedview3"
     pagecolor="#ffffff"
     bordercolor="#000000"
     borderopacity="0.25"
     inkscape:showpageshadow="2"
     inkscape:pageopacity="0.0"
     inkscape:pagecheckerboard="0"
     inkscape:deskcolor="#d1d1d1"
     inkscape:zoom="4.065"
     inkscape:cx="-21.402214"
     inkscape:cy="83.763838"
     inkscape:window-width="2560"
     inkscape:window-height="1369"
     inkscape:window-x="-8"
     inkscape:window-y="5"
     inkscape:window-maximized="1"
     inkscape:current-layer="svg3" />
  <path
     d="m 23.673726,23.51443 c 0.100677,-0.861324 7.906042,-10.921277 11.301227,-10.921277 0.193665,-0.007 0.384349,0.04912 0.543393,0.159889 0.538426,0.388421 0.546373,2.032557 -0.645714,4.845882 -1.312388,2.855991 -2.91331,5.570322 -4.777783,8.100725 -2.653387,3.744642 -7.775386,9.162675 -10.083067,9.162675 0,0 -2.355822,-1.737277 -4.016339,0.415245 -0.383803,0.535395 -0.539568,1.201225 -0.433125,1.85136 0.06931,0.423294 23.128099,17.854233 26.99431,19.143723 2.480717,0.621241 8.487046,-3.689824 14.233862,-10.821614 4.414296,-6.217795 8.340295,-14.977086 4.285416,-18.516227 L 38.419094,8.7188472 c -0.02881,-0.021855 -0.06358,-0.024338 -0.09289,-0.04371 -0.982525,-0.6862147 -2.152856,-1.0525573 -3.351251,-1.049036 -7.692542,0 -17.146525,15.0113198 -16.920745,16.3329598 M 54.62716,43.318638 C 50.655696,48.876832 44.118126,53.493212 42.723517,52.441665 L 22.653649,38.519652 c 3.074026,-1.527977 8.258015,-6.136271 11.487344,-9.932669 3.122604,-3.667449 5.824515,-11.126955 5.98655,-14.923111 l 18.98963,15.34123 c 1.154337,0.828003 0.48695,7.391487 -4.490013,14.313536 z"
     fill="#000000"
     id="path1"
     style="fill:none;stroke:#ff6600;stroke-width:1;stroke-dasharray:none;stroke-opacity:1"
     sodipodi:nodetypes="cccccccccccccccccccccc" />
  <path
     d="M 12.927421,25.376927 C 2.4718188,29.499475 -3.9965124,42.18045 5.8511574,47.245224 c 4.3672866,2.057272 7.8127636,-7.545187 10.1844776,-12.38636 1.828912,-3.7332 3.064009,4.294459 13.057734,-8.531039 0,0 -5.571998,-5.127996 -16.165948,-0.950898 z"
     fill="#000000"
     id="path2"
     style="fill:#ff6600;fill-opacity:1;stroke:#ff6500;stroke-width:1;stroke-dasharray:none;stroke-opacity:1"
     sodipodi:nodetypes="scscs" />
</svg>
