<?xml version="1.0" encoding="UTF-8" standalone="no"?>
<svg
   width="64"
   height="64"
   version="1.1"
   viewBox="0 0 48 48"
   id="svg10"
   sodipodi:docname="layer_remove.svg"
   inkscape:version="1.3 (0e150ed6c4, 2023-07-21)"
   inkscape:export-filename="..\Documents\Godot4_Projects\Orange_Tiles\Svgs\layer_add.png"
   inkscape:export-xdpi="192"
   inkscape:export-ydpi="192"
   xmlns:inkscape="http://www.inkscape.org/namespaces/inkscape"
   xmlns:sodipodi="http://sodipodi.sourceforge.net/DTD/sodipodi-0.dtd"
   xmlns="http://www.w3.org/2000/svg"
   xmlns:svg="http://www.w3.org/2000/svg">
  <defs
     id="defs14" />
  <sodipodi:namedview
     id="namedview12"
     pagecolor="#ffffff"
     bordercolor="#000000"
     borderopacity="0.25"
     inkscape:showpageshadow="2"
     inkscape:pageopacity="0.0"
     inkscape:pagecheckerboard="0"
     inkscape:deskcolor="#d1d1d1"
     inkscape:document-units="pt"
     showgrid="false"
     inkscape:zoom="7.1057143"
     inkscape:cx="20.546844"
     inkscape:cy="35.956976"
     inkscape:window-width="2560"
     inkscape:window-height="1369"
     inkscape:window-x="-8"
     inkscape:window-y="5"
     inkscape:window-maximized="1"
     inkscape:current-layer="svg10" />
  <g
     id="g8"
     transform="matrix(0.08006358,0,0,0.08006358,-4.0222538,1.4308569)"
     style="fill:#ff6600">
    <path
       d="M 595,105 H 210 c -9.2812,0 -18.184,3.6875 -24.75,10.25 C 178.6875,121.8164 175,130.719 175,140 v 385 c 0,9.2812 3.6875,18.184 10.25,24.75 6.5664,6.5625 15.469,10.25 24.75,10.25 h 385 c 9.2812,0 18.184,-3.6875 24.75,-10.25 C 626.3125,543.1836 630,534.281 630,525 V 140 c 0,-9.2812 -3.6875,-18.184 -10.25,-24.75 C 613.1836,108.6875 604.281,105 595,105 Z m 0,420 H 210 V 140 h 385 z"
       id="path2"
       style="fill:#ff6600;fill-opacity:1;stroke:none" />
    <path
       d="m 105,35 h 385 v 35 h 35 V 35 C 525,25.7188 521.3125,16.816 514.75,10.25 508.1836,3.6875 499.281,0 490,0 H 105 C 95.7188,0 86.816,3.6875 80.25,10.25 73.6875,16.8164 70,25.719 70,35 v 385 c 0,9.2812 3.6875,18.184 10.25,24.75 C 86.8164,451.3125 95.719,455 105,455 h 35 v -35 h -35 z"
       id="path4"
       style="fill:#ff6600" />
    <path
       d="m 472.5,350 v -35 h -140 v 35 z"
       id="path6"
       style="fill:#ff6600"
       sodipodi:nodetypes="ccccc" />
  </g>
</svg>
