<?xml version="1.0" encoding="UTF-8" standalone="no"?>
<svg
   width="64"
   height="64"
   version="1.1"
   viewBox="0 0 48 48"
   id="svg10"
   sodipodi:docname="layer_flip_y.svg"
   inkscape:version="1.3 (0e150ed6c4, 2023-07-21)"
   inkscape:export-filename="..\Documents\Godot4_Projects\Orange_Tiles\Svgs\layer_add.png"
   inkscape:export-xdpi="192"
   inkscape:export-ydpi="192"
   xmlns:inkscape="http://www.inkscape.org/namespaces/inkscape"
   xmlns:sodipodi="http://sodipodi.sourceforge.net/DTD/sodipodi-0.dtd"
   xmlns="http://www.w3.org/2000/svg"
   xmlns:svg="http://www.w3.org/2000/svg">
  <defs
     id="defs14" />
  <sodipodi:namedview
     id="namedview12"
     pagecolor="#ffffff"
     bordercolor="#000000"
     borderopacity="0.25"
     inkscape:showpageshadow="2"
     inkscape:pageopacity="0.0"
     inkscape:pagecheckerboard="0"
     inkscape:deskcolor="#d1d1d1"
     inkscape:document-units="pt"
     showgrid="false"
     inkscape:zoom="2.5122494"
     inkscape:cx="-86.774825"
     inkscape:cy="73.440161"
     inkscape:window-width="2560"
     inkscape:window-height="1369"
     inkscape:window-x="-8"
     inkscape:window-y="5"
     inkscape:window-maximized="1"
     inkscape:current-layer="g8" />
  <g
     id="g8"
     transform="matrix(0.08006358,0,0,0.08006358,-4.0222538,1.4308569)"
     style="fill:#ff6600">
    <path
       d="M 595,105 H 210 c -9.2812,0 -18.184,3.6875 -24.75,10.25 C 178.6875,121.8164 175,130.719 175,140 v 385 c 0,9.2812 3.6875,18.184 10.25,24.75 6.5664,6.5625 15.469,10.25 24.75,10.25 h 385 c 9.2812,0 18.184,-3.6875 24.75,-10.25 C 626.3125,543.1836 630,534.281 630,525 V 140 c 0,-9.2812 -3.6875,-18.184 -10.25,-24.75 C 613.1836,108.6875 604.281,105 595,105 Z m 0,420 H 210 V 140 h 385 z"
       id="path2"
       style="fill:#ff6600;fill-opacity:1;stroke:none" />
    <path
       d="m 105,35 h 385 v 35 h 35 V 35 C 525,25.7188 521.3125,16.816 514.75,10.25 508.1836,3.6875 499.281,0 490,0 H 105 C 95.7188,0 86.816,3.6875 80.25,10.25 73.6875,16.8164 70,25.719 70,35 v 385 c 0,9.2812 3.6875,18.184 10.25,24.75 C 86.8164,451.3125 95.719,455 105,455 h 35 v -35 h -35 z"
       id="path4"
       style="fill:#ff6600" />
    <path
       d="m 285.66222,305.63245 v 35 h 233.67555 v -35 z"
       id="path6"
       style="fill:#ff6600"
       sodipodi:nodetypes="ccccc" />
  </g>
  <path
     d="m 24.516424,19.347406 1.5,-0.897165 -1.5,-0.897166 0.032,0.540399 c 0,0 -11.088395,0.385247 -11.143091,9.180205 -0.05546,8.917786 11.143091,9.085781 11.143091,9.085781 l -0.032,0.634823 1.5,-0.897166 -1.5,-0.897165 0.032,0.489849 c 0,0 -10.413307,-0.314412 -10.413307,-8.416122 0,-8.30828 10.413307,-8.627026 10.413307,-8.627026 z"
     style="fill:#ff6600;stroke-width:0.821121"
     id="path1"
     sodipodi:nodetypes="ccccscccccscc" />
  <g
     id="g1"
     transform="rotate(90,28.273562,27.223805)">
    <rect
       style="fill:#ff6600;stroke-width:1.5;stroke-linecap:round;stroke-linejoin:round"
       id="rect7"
       width="2.4629321"
       height="0.89561176"
       x="23.554438"
       y="26.775999" />
    <rect
       style="fill:#ff6600;stroke-width:1.5;stroke-linecap:round;stroke-linejoin:round"
       id="rect7-6"
       width="2.4629321"
       height="0.89561176"
       x="19.054438"
       y="26.775999" />
    <rect
       style="fill:#ff6600;stroke-width:1.5;stroke-linecap:round;stroke-linejoin:round"
       id="rect7-6-3"
       width="2.4629321"
       height="0.89561176"
       x="14.554438"
       y="26.775999" />
    <rect
       style="fill:#ff6600;stroke-width:1.5;stroke-linecap:round;stroke-linejoin:round"
       id="rect7-2"
       width="2.4629321"
       height="0.89561176"
       x="30.529757"
       y="26.775999" />
    <rect
       style="fill:#ff6600;stroke-width:1.5;stroke-linecap:round;stroke-linejoin:round"
       id="rect7-2-5"
       width="2.4629321"
       height="0.89561176"
       x="35.029755"
       y="26.775999" />
    <rect
       style="fill:#ff6600;stroke-width:1.5;stroke-linecap:round;stroke-linejoin:round"
       id="rect7-2-5-3"
       width="2.4629321"
       height="0.89561176"
       x="39.529755"
       y="26.775999" />
  </g>
</svg>
