<?xml version="1.0" encoding="UTF-8" standalone="no"?>
<svg
   version="1.1"
   x="0px"
   y="0px"
   viewBox="0 0 64 64"
   xml:space="preserve"
   id="svg2"
   sodipodi:docname="pencil.svg"
   width="64"
   height="64"
   inkscape:version="1.3 (0e150ed6c4, 2023-07-21)"
   xmlns:inkscape="http://www.inkscape.org/namespaces/inkscape"
   xmlns:sodipodi="http://sodipodi.sourceforge.net/DTD/sodipodi-0.dtd"
   xmlns="http://www.w3.org/2000/svg"
   xmlns:svg="http://www.w3.org/2000/svg"><defs
     id="defs2" /><sodipodi:namedview
     id="namedview2"
     pagecolor="#ffffff"
     bordercolor="#000000"
     borderopacity="0.25"
     inkscape:showpageshadow="2"
     inkscape:pageopacity="0.0"
     inkscape:pagecheckerboard="0"
     inkscape:deskcolor="#d1d1d1"
     inkscape:zoom="13.008"
     inkscape:cx="28.674662"
     inkscape:cy="34.70941"
     inkscape:window-width="2560"
     inkscape:window-height="1369"
     inkscape:window-x="-8"
     inkscape:window-y="5"
     inkscape:window-maximized="1"
     inkscape:current-layer="svg2" /><path
     d="m 56.153394,2.4305854 c -2.004913,-2.00491421 -5.166508,-2.00491421 -7.171422,0 L 44.046799,7.3657579 7.8041248,43.685544 c -0.077112,0.07711 -0.1542241,0.154224 -0.1542241,0.308448 v 0 L 1.4809349,61.652657 c -0.077112,0.308448 0,0.616897 0.1542241,0.848233 0.1542241,0.154224 0.3855604,0.231336 0.5397845,0.231336 0.077112,0 0.1542242,0 0.2313362,-0.07711 L 20.064944,56.486148 v 0 c 0.07711,-0.07711 0.231337,-0.07711 0.308449,-0.154224 l 36.319786,-36.319786 4.935173,-4.935173 c 0.925345,-0.925344 1.465129,-2.23625 1.465129,-3.547155 0,-1.310905 -0.539784,-2.6218101 -1.465129,-3.5471551 z M 44.663696,9.0622239 46.437273,10.835801 12.353737,44.919337 c -0.694009,-0.462672 -1.310905,-0.539784 -1.85069,-0.616896 -0.308448,0 -0.6168962,-0.07711 -0.8482324,-0.154225 z m 2.853146,2.8531461 4.626725,4.626725 -34.083536,34.083536 c -0.694009,-0.462673 -1.310906,-0.539785 -1.85069,-0.616897 -0.616897,-0.07711 -1.002457,-0.07711 -1.542242,-0.616897 -0.539784,-0.539784 -0.539784,-0.925344 -0.616896,-1.542241 -0.07711,-0.539785 -0.154224,-1.156681 -0.616897,-1.85069 z M 2.9604788,61.098458 8.7294697,45.536234 c 0.5397845,0.308448 1.079569,0.308448 1.5422413,0.38556 0.616897,0.07711 1.002457,0.07711 1.542242,0.616897 0.539784,0.539784 0.539784,0.925345 0.616896,1.542241 0.07711,0.694009 0.154224,1.542242 1.079569,2.467587 0.925345,0.925344 1.773578,1.002456 2.467587,1.079569 0.616896,0.07711 1.002457,0.07711 1.542241,0.616896 0.539785,0.539785 0.539785,0.925345 0.616897,1.542242 0.07711,0.462672 0.07711,0.925344 0.38556,1.542241 z M 19.91072,54.481234 C 19.83361,54.249898 19.756496,53.94145 19.756496,53.633001 19.679386,53.093217 19.602272,52.47632 19.1396,51.782312 l 34.083536,-34.083536 1.696465,1.696465 z"
     id="path1"
     style="fill:#ff6600;stroke:none;stroke-width:1;stroke-opacity:1;stroke-dasharray:none;fill-opacity:1"
     sodipodi:nodetypes="csccscccsccsccssccccccccccccsccccccscscsccccccccc" /></svg>
